<svg width="24" height="25" viewBox="0 0 24 25" fill="none" xmlns="http://www.w3.org/2000/svg">
<path d="M12 5.23999C12.1193 5.23999 12.2338 5.2874 12.3181 5.37179C12.4025 5.45618 12.45 5.57064 12.45 5.68999C12.45 5.80934 12.4025 5.9238 12.3181 6.00819C12.2338 6.09258 12.1193 6.13999 12 6.13999C11.8806 6.13999 11.7661 6.09258 11.6818 6.00819C11.5974 5.9238 11.55 5.80934 11.55 5.68999C11.55 5.57064 11.5974 5.45618 11.6818 5.37179C11.7661 5.2874 11.8806 5.23999 12 5.23999ZM10.05 5.68999C10.05 6.20716 10.2554 6.70315 10.6211 7.06885C10.9868 7.43454 11.4828 7.63999 12 7.63999C12.5171 7.63999 13.0131 7.43454 13.3788 7.06885C13.7445 6.70315 13.95 6.20716 13.95 5.68999C13.95 5.17282 13.7445 4.67683 13.3788 4.31113C13.0131 3.94544 12.5171 3.73999 12 3.73999C11.4828 3.73999 10.9868 3.94544 10.6211 4.31113C10.2554 4.67683 10.05 5.17282 10.05 5.68999ZM10.8 20.09C10.8 20.4082 10.9264 20.7135 11.1514 20.9385C11.3765 21.1636 11.6817 21.29 12 21.29C12.3182 21.29 12.6234 21.1636 12.8485 20.9385C13.0735 20.7135 13.2 20.4082 13.2 20.09C13.2 19.7717 13.0735 19.4665 12.8485 19.2415C12.6234 19.0164 12.3182 18.89 12 18.89C11.6817 18.89 11.3765 19.0164 11.1514 19.2415C10.9264 19.4665 10.8 19.7717 10.8 20.09ZM20.4 12.89C20.4 12.5717 20.2735 12.2665 20.0485 12.0415C19.8234 11.8164 19.5182 11.69 19.2 11.69C18.8817 11.69 18.5765 11.8164 18.3514 12.0415C18.1264 12.2665 18 12.5717 18 12.89C18 13.2082 18.1264 13.5135 18.3514 13.7385C18.5765 13.9636 18.8817 14.09 19.2 14.09C19.5182 14.09 19.8234 13.9636 20.0485 13.7385C20.2735 13.5135 20.4 13.2082 20.4 12.89ZM4.79995 11.54C4.44191 11.54 4.09853 11.6822 3.84536 11.9354C3.59218 12.1886 3.44995 12.5319 3.44995 12.89C3.44995 13.248 3.59218 13.5914 3.84536 13.8446C4.09853 14.0978 4.44191 14.24 4.79995 14.24C5.15799 14.24 5.50137 14.0978 5.75455 13.8446C6.00772 13.5914 6.14995 13.248 6.14995 12.89C6.14995 12.5319 6.00772 12.1886 5.75455 11.9354C5.50137 11.6822 5.15799 11.54 4.79995 11.54ZM17.5162 8.22124C17.4616 8.28147 17.3954 8.32999 17.3215 8.36384C17.2476 8.3977 17.1676 8.41619 17.0863 8.41819C17.0051 8.42019 16.9243 8.40566 16.8488 8.37548C16.7733 8.3453 16.7048 8.30011 16.6473 8.24263C16.5898 8.18516 16.5446 8.11661 16.5145 8.04114C16.4843 7.96567 16.4698 7.88486 16.4718 7.8036C16.4738 7.72235 16.4922 7.64234 16.5261 7.56845C16.56 7.49456 16.6085 7.42832 16.6687 7.37374C16.7233 7.31351 16.7895 7.26499 16.8634 7.23114C16.9373 7.19728 17.0173 7.17879 17.0986 7.17679C17.1798 7.17479 17.2606 7.18932 17.3361 7.2195C17.4116 7.24968 17.4801 7.29487 17.5376 7.35235C17.5951 7.40982 17.6403 7.47837 17.6704 7.55384C17.7006 7.62931 17.7151 7.71012 17.7131 7.79138C17.7111 7.87263 17.6927 7.95263 17.6588 8.02653C17.6249 8.10042 17.5764 8.16666 17.5162 8.22124ZM18.5775 6.31249C18.3824 6.11748 18.1509 5.96278 17.8961 5.85724C17.6413 5.7517 17.3682 5.69738 17.0925 5.69738C16.8167 5.69738 16.5436 5.7517 16.2888 5.85724C16.034 5.96278 15.8025 6.11748 15.6075 6.31249C15.2136 6.70634 14.9923 7.24051 14.9923 7.79749C14.9923 8.07328 15.0467 8.34637 15.1522 8.60117C15.2577 8.85596 15.4124 9.08748 15.6075 9.28249C16.0013 9.67634 16.5355 9.8976 17.0925 9.8976C17.3682 9.8976 17.6413 9.84328 17.8961 9.73774C18.1509 9.6322 18.3824 9.4775 18.5775 9.28249C18.7725 9.08748 18.9272 8.85596 19.0327 8.60117C19.1382 8.34637 19.1926 8.07328 19.1926 7.79749C19.1926 7.5217 19.1382 7.24861 19.0327 6.99381C18.9272 6.73902 18.7725 6.5075 18.5775 6.31249ZM6.05995 17.1312C5.94841 17.2428 5.85993 17.3752 5.79956 17.5209C5.7392 17.6667 5.70813 17.8229 5.70813 17.9806C5.70813 18.1384 5.7392 18.2946 5.79956 18.4403C5.85993 18.586 5.94841 18.7184 6.05995 18.83C6.17149 18.9415 6.30391 19.03 6.44965 19.0904C6.59538 19.1507 6.75158 19.1818 6.90933 19.1818C7.06707 19.1818 7.22327 19.1507 7.369 19.0904C7.51474 19.03 7.64716 18.9415 7.7587 18.83C7.87024 18.7184 7.95872 18.586 8.01909 18.4403C8.07945 18.2946 8.11052 18.1384 8.11052 17.9806C8.11052 17.8229 8.07945 17.6667 8.01909 17.5209C7.95872 17.3752 7.87024 17.2428 7.7587 17.1312C7.64716 17.0197 7.51474 16.9312 7.369 16.8709C7.22327 16.8105 7.06707 16.7794 6.90933 16.7794C6.75158 16.7794 6.59538 16.8105 6.44965 16.8709C6.30391 16.9312 6.17149 17.0197 6.05995 17.1312ZM17.94 18.83C18.0515 18.7184 18.14 18.586 18.2003 18.4403C18.2607 18.2946 18.2918 18.1384 18.2918 17.9806C18.2918 17.8229 18.2607 17.6667 18.2003 17.5209C18.14 17.3752 18.0515 17.2428 17.94 17.1312C17.8284 17.0197 17.696 16.9312 17.5503 16.8709C17.4045 16.8105 17.2483 16.7794 17.0906 16.7794C16.9328 16.7794 16.7766 16.8105 16.6309 16.8709C16.4852 16.9312 16.3527 17.0197 16.2412 17.1312C16.1297 17.2428 16.0412 17.3752 15.9808 17.5209C15.9204 17.6667 15.8894 17.8229 15.8894 17.9806C15.8894 18.1384 15.9204 18.2946 15.9808 18.4403C16.0412 18.586 16.1297 18.7184 16.2412 18.83C16.3527 18.9415 16.4852 19.03 16.6309 19.0904C16.7766 19.1507 16.9328 19.1818 17.0906 19.1818C17.2483 19.1818 17.4045 19.1507 17.5503 19.0904C17.696 19.03 17.8284 18.9415 17.94 18.83ZM7.1212 8.01124C7.09391 8.04136 7.06079 8.06561 7.02385 8.08254C6.9869 8.09947 6.9469 8.10871 6.90627 8.10971C6.86564 8.11071 6.82524 8.10345 6.7875 8.08836C6.74977 8.07327 6.71549 8.05067 6.68675 8.02194C6.65802 7.9932 6.63542 7.95892 6.62033 7.92119C6.60524 7.88345 6.59798 7.84305 6.59898 7.80242C6.59998 7.76179 6.60922 7.72179 6.62615 7.68485C6.64308 7.6479 6.66734 7.61478 6.69745 7.58749C6.72474 7.55737 6.75786 7.53312 6.79481 7.51619C6.83175 7.49926 6.87175 7.49002 6.91238 7.48902C6.95301 7.48802 6.99342 7.49528 7.03115 7.51037C7.06889 7.52546 7.10316 7.54806 7.1319 7.57679C7.16063 7.60553 7.18323 7.63981 7.19832 7.67754C7.21341 7.71528 7.22068 7.75568 7.21968 7.79631C7.21867 7.83694 7.20943 7.87694 7.1925 7.91388C7.17558 7.95083 7.15132 7.98395 7.1212 8.01124ZM8.18245 6.52624C7.8448 6.18859 7.38684 5.99889 6.90933 5.99889C6.43181 5.99889 5.97386 6.18859 5.6362 6.52624C5.29855 6.86389 5.10886 7.32185 5.10886 7.79937C5.10886 8.27688 5.29855 8.73484 5.6362 9.07249C5.97386 9.41014 6.43181 9.59984 6.90933 9.59984C7.38684 9.59984 7.8448 9.41014 8.18245 9.07249C8.5201 8.73484 8.7098 8.27688 8.7098 7.79937C8.7098 7.32185 8.5201 6.86389 8.18245 6.52624Z" fill="white"/>
</svg>
